<?xml version="1.0" encoding="utf-8"?>
<!-- Generator: Adobe Illustrator 24.1.3, SVG Export Plug-In . SVG Version: 6.00 Build 0)  -->
<svg version="1.1" id="Layer_1" xmlns="http://www.w3.org/2000/svg" xmlns:xlink="http://www.w3.org/1999/xlink" x="0px" y="0px"
	 viewBox="0 0 595.3 841.9" style="enable-background:new 0 0 595.3 841.9;" xml:space="preserve">
<style type="text/css">
	.st0{display:none;}
	.st1{display:inline;fill:#1172BA;}
	.st2{display:inline;fill:#F99C35;}
	.st3{fill:#119DAE;}
	.st4{fill:#F99C35;}
	.st5{fill:none;}
	.st6{font-family:'Lato-Regular';}
	.st7{font-size:37px;}
</style>
<g class="st0">
	<path class="st1" d="M296.2,358.2h-46.5l-33.9,125.6h27.8l5.7-22.4l1.8-7l6.1-23.9H257l4.8-18.2l0-0.2l8.3-31.7h6.8l0,0.1v103.3
		h28.2V367.1C305.1,362.2,301.1,358.2,296.2,358.2z"/>
	<path class="st1" d="M353.2,358.2h-75v125.5h75c14.4,0,26.4-11.6,26.4-25.8V384C379.5,369.8,367.5,358.2,353.2,358.2z M352.7,452
		c0,4.1-3.1,7.2-7.2,7.2h-40.4v-76.4h40.4c4.1,0,7.2,3.1,7.2,7.2V452z"/>
	<path class="st2" d="M333.6,440.8h-16v-39.8h16c3.6,0,6.5,2.9,6.5,6.5v26.7C340.2,437.9,337.2,440.8,333.6,440.8z"/>
</g>
<g>
	<path class="st3" d="M130,376H96.7l-24.3,89.8h19.9l4.1-16l1.3-5l4.3-17.1H102l3.4-13l0-0.1l5.9-22.7h4.9l0,0.1v73.9h20.2v-83.4
		C136.4,378.9,133.6,376,130,376z"/>
	<path class="st3" d="M162.1,395.9c0.4-1.3,1.1-2.4,1.9-3.2c0.8-0.8,1.9-1.4,3.2-1.7c1.3-0.3,2.7-0.5,4.4-0.5c0.5,0,1-0.1,1.6-0.2
		c0.5-0.1,1-0.3,1.5-0.6c0.5-0.3,0.8-0.6,1.1-1c0.3-0.4,0.4-0.9,0.5-1.6l0.4-9c-1.4-0.4-2.7-0.7-4-0.9c-1.3-0.2-2.7-0.3-4.2-0.3
		c-3.9,0-7.4,0.6-10.5,1.7c-3.1,1.1-5.7,2.7-7.8,4.7c-2.1,2-3.8,4.5-4.9,7.3c-1.1,2.9-1.7,6.1-1.7,9.6v65.5H162v-49.2H176v-12.7
		h-14.5V401C161.4,399,161.7,397.3,162.1,395.9z"/>
	<path class="st3" d="M216.2,402.6c-3.2,0-6.1,1-8.6,2.9c-2.5,1.9-4.7,4.6-6.6,7.9l-0.9-5.2c-0.2-0.8-0.3-1.5-0.6-2
		c-0.2-0.6-0.5-1-0.9-1.3c-0.4-0.3-0.9-0.6-1.6-0.7c-0.6-0.2-1.4-0.2-2.3-0.2h-11v62h18.5v-37.7c1.1-2.5,2.5-4.5,4.1-6
		c1.6-1.4,3.8-2.1,6.5-2.1c0.5,0,1,0,1.6,0.1c0.6,0.1,1.1,0.1,1.7,0.2c0.6,0.1,1.1,0.1,1.6,0.1c0.5,0,0.9,0.1,1.2,0.1
		c0.8,0,1.4-0.2,1.9-0.5c0.2-0.2,0.4-0.4,0.6-0.7v-15.7C220,403,218.2,402.6,216.2,402.6z"/>
	<g>
		<path class="st3" d="M249,403.8v62h-18.5v-62C236.6,408.5,242.8,408.5,249,403.8z"/>
		<path class="st3" d="M250.9,387.9c0,1.5-0.3,2.9-0.9,4.2c-0.6,1.3-1.4,2.4-2.4,3.4c-1,1-2.2,1.8-3.6,2.3c-1.4,0.6-2.8,0.9-4.4,0.9
			c-1.5,0-2.9-0.3-4.2-0.9c-1.3-0.6-2.5-1.4-3.5-2.3c-1-1-1.8-2.1-2.4-3.4c-0.6-1.3-0.9-2.7-0.9-4.2c0-1.5,0.3-2.9,0.9-4.3
			c0.6-1.3,1.4-2.5,2.4-3.5c1-1,2.2-1.8,3.5-2.3c1.3-0.6,2.7-0.8,4.2-0.8c1.6,0,3,0.3,4.4,0.8c1.4,0.6,2.6,1.3,3.6,2.3
			c1,1,1.8,2.2,2.4,3.5C250.6,384.9,250.9,386.4,250.9,387.9z"/>
	</g>
	<g>
		<path class="st3" d="M311.6,376h-53.6v89.8h53.6c10.3,0,18.9-8.3,18.9-18.5v-52.8C330.4,384.4,321.8,376,311.6,376z M311.2,443.1
			c0,2.9-2.2,5.1-5.1,5.1h-28.9v-54.7H306c2.9,0,5.1,2.2,5.1,5.1V443.1z"/>
		<path class="st4" d="M297.6,435.2h-11.5v-28.5h11.5c2.6,0,4.7,2.1,4.7,4.7v19.1C302.2,433.1,300.1,435.2,297.6,435.2z"/>
	</g>
	<g>
		<path class="st3" d="M393.9,436.9c0.5-0.2,1-0.6,1.3-1.1c0.3-0.5,0.5-1.2,0.7-2.1c0.1-0.9,0.2-2,0.2-3.4c0-4.5-0.7-8.5-2.1-12
			c-1.4-3.5-3.3-6.5-5.7-8.9c-2.5-2.4-5.4-4.3-8.8-5.6c-3.4-1.3-7.2-1.9-11.3-1.9c-4.8,0-9,0.8-12.8,2.4c-3.8,1.6-7,3.9-9.6,6.6
			c-2.7,2.8-4.7,6-6.1,9.8c-1.4,3.7-2.1,7.6-2.1,11.8c0,5.5,0.8,10.3,2.5,14.5c1.7,4.2,3.9,7.6,6.8,10.4c2.9,2.8,6.2,4.9,10,6.3
			c3.8,1.4,7.9,2.1,12.2,2.1c2.1,0,4.3-0.1,6.7-0.4c2.3-0.3,4.7-0.8,7-1.6c2.3-0.8,4.6-1.9,6.8-3.2c2.2-1.4,4.3-3.2,6.2-5.4
			l-5.4-6.6c-0.8-1.1-1.9-1.6-3.4-1.6c-1.1,0-2.2,0.3-3.2,0.8c-1,0.5-2.1,1.1-3.4,1.7c-1.2,0.6-2.6,1.2-4.2,1.7s-3.4,0.8-5.6,0.8
			c-4,0-7.3-1.2-9.9-3.5c-2.5-2.3-4.1-6.1-4.7-11.3h35.8C392.6,437.2,393.3,437.1,393.9,436.9z M356.3,426.4c0.6-3.8,2-6.7,4-8.7
			c2-2,4.7-3,8.3-3c2,0,3.7,0.3,5.1,1c1.4,0.7,2.5,1.6,3.4,2.7c0.9,1.1,1.5,2.3,1.9,3.7c0.4,1.4,0.6,2.8,0.6,4.3H356.3z"/>
		<path class="st3" d="M376,391.8c-2.5,2.1-5.2,4-8.3,5.7c-3.1,1.7-5.8,1.7-8.1,0c-2.3-1.8-2.8-4.2-1.4-7.4c1.4-3.2,2.9-6.1,4.5-8.8
			c1.6-2.7,3.7-4.4,6.3-5c2.6-0.6,4.9,0,6.9,1.6c2,1.6,3.1,3.8,3.4,6.6C379.6,387.3,378.5,389.7,376,391.8z"/>
	</g>
	<path class="st3" d="M451.9,448.6c-0.8-1.1-1.9-1.6-3.4-1.6c-1.1,0-2,0.3-2.8,0.8c-0.7,0.5-1.5,1.2-2.4,1.8
		c-0.9,0.6-1.9,1.2-3.2,1.8c-1.2,0.5-3,0.8-5.1,0.8c-4,0-7.2-1.6-9.5-4.8c-2.3-3.2-3.4-7.8-3.4-13.7c0-2.8,0.3-5.4,0.8-7.6
		c0.5-2.3,1.3-4.2,2.4-5.7c1.1-1.6,2.4-2.8,4.1-3.6c1.7-0.8,3.6-1.3,5.9-1.3c1.8,0,3.4,0.2,4.6,0.7c1.2,0.4,2.3,0.9,3.2,1.5
		c0.9,0.5,1.7,1,2.5,1.5c0.7,0.4,1.6,0.7,2.5,0.7c1,0,1.7-0.2,2.2-0.6c0.5-0.4,1-0.9,1.6-1.6l4.9-6.5c-3-3-6.3-5.3-9.9-6.8
		c-3.7-1.6-7.9-2.3-12.8-2.3c-5.1,0-9.5,0.8-13.4,2.4c-3.8,1.6-7.1,3.9-9.7,6.7c-2.6,2.9-4.6,6.2-5.9,10.1c-1.3,3.9-2,8.1-2,12.5
		c0,5.1,0.8,9.7,2.3,13.6c1.5,4,3.6,7.3,6.2,10.1c2.6,2.7,5.7,4.8,9.1,6.2c3.5,1.4,7.1,2.2,10.9,2.2c2.1,0,4.3-0.1,6.5-0.4
		c2.2-0.3,4.5-0.8,6.7-1.6c2.2-0.8,4.4-1.9,6.5-3.2c2.1-1.4,4.1-3.2,6.1-5.4L451.9,448.6z"/>
	<path class="st3" d="M520.5,420.4c-1.5-3.9-3.7-7.3-6.5-10c-2.8-2.7-6.1-4.9-10-6.3c-3.9-1.5-8.1-2.2-12.8-2.2
		c-4.8,0-9.1,0.7-13,2.2c-3.9,1.5-7.2,3.6-10.1,6.3c-2.8,2.8-5,6.1-6.5,10c-1.5,3.9-2.3,8.4-2.3,13.3c0,4.9,0.8,9.4,2.3,13.4
		c1.5,4,3.7,7.3,6.5,10.1c2.8,2.8,6.2,4.9,10.1,6.4c3.9,1.5,8.2,2.2,13,2.2c4.7,0,9-0.7,12.8-2.2c3.9-1.5,7.2-3.6,10-6.4
		c2.8-2.8,4.9-6.1,6.5-10.1c1.5-4,2.3-8.4,2.3-13.4C522.8,428.8,522,424.4,520.5,420.4z M500.6,447.6c-2,3-5.2,4.5-9.4,4.5
		c-4.4,0-7.6-1.5-9.6-4.5c-2-3-3.1-7.6-3.1-13.7s1-10.7,3.1-13.7c2-3,5.2-4.5,9.6-4.5c4.3,0,7.4,1.5,9.4,4.5c2,3,3,7.5,3,13.7
		S502.6,444.5,500.6,447.6z"/>
</g>
<g class="st0">
</g>
<rect x="72.5" y="475.5" class="st5" width="450.6" height="71.4"/>
<text transform="matrix(1 0 0 1 163.1343 502.8125)"><tspan x="0" y="0" class="st3 st6 st7">Meuble et Elec</tspan><tspan x="255.5" y="0" class="st3 st6 st7">-</tspan></text>
</svg>
